<svg version="1.1" xmlns="http://www.w3.org/2000/svg" xmlns:xlink="http://www.w3.org/1999/xlink" width="304.3186" height="264.01259" viewBox="0,0,304.3186,264.01259"><g transform="translate(-87.8407,-47.9937)"><g data-paper-data="{&quot;isPaintingLayer&quot;:true}" fill-rule="nonzero" stroke="none" stroke-width="0" stroke-linecap="butt" stroke-linejoin="miter" stroke-miterlimit="10" stroke-dasharray="" stroke-dashoffset="0" style="mix-blend-mode: normal"><path d="M295.8483,307.6585c-4.66662,1.51307 -10.07197,3.26565 -12.90268,4.18348c-3.65578,1.18532 -11.372,-4.22004 -13.40157,-10.47958c-2.34919,-7.24537 -8.39002,-25.87643 -12.27042,-37.84435c-2.27236,-7.0084 2.01858,-14.03296 5.89041,-15.28836c2.59755,-0.84221 7.20777,-2.33699 11.41044,-3.69963c4.87536,-1.58076 11.42564,3.87383 13.21941,9.40625c2.26871,6.99717 8.1342,25.08748 12.22891,37.71636c2.47216,7.6246 0.42021,14.51607 -4.17454,16.00583z" fill="#000000"/><path d="M258.68376,255.62534l-25.08575,-75.02427l23.61539,-7.89624l25.08575,75.02427z" fill="#88b9e2"/><path d="M175.48858,191.07483l11.07105,0.92306l-1.48008,17.75185l-11.07105,-0.92306z" fill="#88b9e2"/><path d="M183.08879,192.91962l11.10222,-0.40192l0.64443,17.80181l-11.10218,0.40188z" fill="#5798c4"/><path d="M187.24488,193.42659l10.08624,-4.65702l7.4673,16.17276l-10.08624,4.65702z" fill="#88b9e2"/><path d="M188.89999,198.13093l4.22127,-10.27625l16.47742,6.76859l-4.22127,10.27625z" fill="#5798c4"/><path d="M193.21137,188.89907l4.22127,-10.27625l16.47742,6.76859l-4.22127,10.27625z" fill="#88b9e2"/><path d="M325.5158,158.09971l-8.28924,7.39655l-11.85996,-13.29138l8.28924,-7.39655z" fill="#88b9e2"/><path d="M318.88656,165.46268l-9.11109,6.3568l-10.19274,-14.60914l9.11109,-6.35677z" fill="#5798c4"/><path d="M309.44075,171.17006l-10.85887,2.34634l-3.76225,-17.41162l10.85887,-2.34634z" fill="#88b9e2"/><path d="M298.09361,173.83044l-9.55336,-5.67043l9.09227,-15.31829l9.55333,5.67046z" fill="#5798c4"/><path d="M289.09646,169.04853l-9.55336,-5.67043l9.09227,-15.31829l9.55333,5.67046z" fill="#88b9e2"/><path d="M221.94113,84.27868c36.40287,-11.91471 42.59707,3.60876 42.59707,3.60876c0,0 -25.40388,16.26797 -38.79882,20.71501c-13.56382,4.50309 -42.08391,6.1375 -42.08391,6.1375c0,0 -4.46125,-16.47012 38.28569,-30.46126z" fill="#dcf7ff"/><path d="M199.26651,146.16519l-8.83824,-26.43264l67.8438,-22.68484l8.83824,26.43264z" fill="#5798c4"/><path d="M206.646,141.74462l-14.86747,-6.82699l2.81746,-6.1358l14.86747,6.82699z" data-paper-data="{&quot;index&quot;:null}" fill="#d546be"/><path d="M192.33564,130.53181l9.49852,-16.92313l4.68088,2.62726l-9.49852,16.92313z" data-paper-data="{&quot;index&quot;:null}" fill="#dcf7ff"/><path d="M254.92207,123.89192l7.77098,-14.39656l5.94145,3.20709l-7.77098,14.39656z" fill="#d546be"/><path d="M262.90253,112.65265l-17.76727,-7.80632l2.1592,-4.91436l17.76727,7.80632z" fill="#dcf7ff"/><path d="M226.19033,119.18532c14.42327,-4.82271 29.03975,-4.51145 40.99198,-0.11c11.86832,4.37056 23.05581,37.17392 15.99918,43.6878c-19.29009,17.80636 -71.52313,22.97322 -72.19084,22.19434c-14.0277,-16.36274 -19.68912,-38.98385 -14.61601,-45.3872c7.01589,-8.85557 17.31372,-16.20467 29.81575,-20.38493z" data-paper-data="{&quot;index&quot;:null}" fill="#f69bcc"/><path d="M226.19033,119.18532c14.37267,-4.80578 28.49415,13.53228 35.42926,34.27323c1.97538,5.9078 3.3677,12.01054 4.01674,17.82892c0.81244,7.28329 -14.25839,5.92894 -26.51946,9.8315c-12.33192,3.92509 -29.60355,4.58496 -30.58204,3.33325c-12.77246,-16.33891 -16.99253,-38.80356 -12.10374,-44.95319c7.01463,-8.82372 17.29072,-16.14462 29.7592,-20.31371z" data-paper-data="{&quot;index&quot;:null}" fill="#f7c9db"/><path d="M226.19033,119.18532c0.36663,-0.1226 3.64528,-1.27072 6.72627,-1.9868c2.80502,-0.65195 5.43792,-0.88712 5.72271,-0.8086c1.12227,0.30952 4.6976,7.69338 2.40892,12.66472c-1.22404,2.65874 -7.06263,3.86111 -9.30138,4.63099c-2.84148,0.97716 -8.82852,1.9803 -11.74488,-0.15173c-3.47272,-2.53874 -5.04355,-8.59536 -3.83821,-9.83816c0.77987,-0.80411 5.46571,-2.98544 10.02662,-4.51046z" data-paper-data="{&quot;index&quot;:null}" fill="#9ad2f5"/><g><path d="M225.67463,171.86924c-2.1055,-6.29693 -5.54681,-16.58894 -6.77348,-20.25753c-0.85859,-2.56774 -0.91582,-6.00004 0.37093,-6.43028c1.85002,-0.61858 4.33249,-1.44866 5.442,-1.81962c1.08615,-0.36316 3.72384,2.59201 4.64705,5.35304c1.23651,3.69809 4.54327,13.58765 6.59287,19.71732c1.0109,3.02327 0.43519,5.56015 -0.55157,5.8901c-1.08785,0.36375 -3.65565,1.22234 -5.59317,1.8702c-1.36596,0.45673 -3.12222,-1.29538 -4.13461,-4.32317z" fill="#000000"/><path d="M225.65968,171.82455c-2.1055,-6.29693 8.22978,-9.5668 10.27935,-3.4371c1.0109,3.02327 0.43516,5.56018 -0.55157,5.8901c-1.08785,0.36375 -3.65565,1.22234 -5.59317,1.8702c-1.36596,0.45673 -3.12222,-1.29538 -4.13461,-4.3232z" fill="#00628a"/><path d="M229.33926,165.21911c-0.24759,-0.7405 0.15198,-1.54149 0.89248,-1.7891c0.7405,-0.24759 1.54149,0.15198 1.7891,0.89248c0.24759,0.7405 -0.15198,1.54149 -0.89248,1.7891c-0.7405,0.24759 -1.54149,-0.15198 -1.7891,-0.89248z" fill="#ffffff"/></g><g><path d="M250.51291,163.56412c-2.1055,-6.29693 -5.54681,-16.58894 -6.77348,-20.25753c-0.85859,-2.56774 -0.91582,-6.00004 0.37093,-6.43028c1.85002,-0.61858 4.33249,-1.44866 5.442,-1.81962c1.08615,-0.36316 3.72384,2.59201 4.64705,5.35304c1.23651,3.69809 4.54327,13.58765 6.59287,19.71732c1.0109,3.0233 0.43516,5.56015 -0.55157,5.8901c-1.08785,0.36375 -3.65565,1.22234 -5.59317,1.8702c-1.36596,0.45673 -3.12222,-1.29538 -4.13461,-4.32317z" fill="#000000"/><path d="M250.49797,163.5194c-2.1055,-6.29693 8.22978,-9.56677 10.27935,-3.4371c1.0109,3.0233 0.43516,5.56018 -0.55157,5.8901c-1.08785,0.36375 -3.65565,1.22234 -5.59317,1.8702c-1.36596,0.45673 -3.12222,-1.29542 -4.13461,-4.3232z" fill="#00628a"/><path d="M254.17754,156.91396c-0.24759,-0.7405 0.15198,-1.54152 0.89248,-1.7891c0.7405,-0.24759 1.54149,0.15198 1.7891,0.89248c0.24759,0.7405 -0.15198,1.54149 -0.89248,1.7891c-0.7405,0.24759 -1.54152,-0.15198 -1.7891,-0.89245z" fill="#ffffff"/></g><path d="M210.07975,190.22324l-24.94349,-74.5988l6.16762,-2.06226l24.94349,74.5988z" fill="#88b9e2"/><path d="M280.37101,166.72005l-24.02693,-71.85766l6.16762,-2.06226l24.02693,71.85766z" fill="#88b9e2"/><path d="M186.31622,120.78094l-2.55329,-7.63609c0,0 26.96372,-3.46477 39.94334,-7.80474c12.8313,-4.29039 37.49452,-18.08802 37.49452,-18.08802l2.55329,7.63609c0,0 -24.61097,12.80057 -37.49245,17.10773c-12.93094,4.32369 -39.94542,8.78503 -39.94542,8.78503z" fill="#88b9e2"/><path d="M210.27614,190.81065l-2.55329,-7.63609c0,0 26.7079,-3.37922 39.55626,-7.67533c12.70152,-4.24699 37.09843,-17.95558 37.09843,-17.95558l2.55329,7.63609c0,0 -24.34813,12.71269 -37.09936,16.97631c-12.80017,4.27996 -39.55533,8.6546 -39.55533,8.6546z" fill="#dcf7ff"/><path d="M180.96633,153.90218c-11.53354,-35.00453 3.98765,-41.19914 3.98765,-41.19914l26.00407,77.77073c0,0 -16.4482,4.53337 -29.99172,-36.57159z" fill="#dcf7ff"/><path d="M286.53414,164.94231l-25.68985,-76.83089c0,0 16.1219,-4.39801 27.82159,30.08136c13.73867,40.48826 -2.13178,46.74954 -2.13178,46.74954z" data-paper-data="{&quot;index&quot;:null}" fill="#dcf7ff"/><path d="M218.4946,84.90863c4.13999,-1.35503 7.88927,-2.35516 11.28316,-3.06363c13.10124,-2.73482 4.25557,14.45283 -8.84861,18.90464c-13.35022,4.53541 -30.96848,-3.69357 -17.66447,-9.913c4.25681,-1.98998 9.28717,-3.98297 15.22992,-5.92804z" fill="#9ad2f5"/><path d="M286.69051,164.62879c0,0 -9.56794,-81.2289 2.13178,-46.74954c13.73867,40.48826 -2.13178,46.74954 -2.13178,46.74954z" data-paper-data="{&quot;index&quot;:null}" fill="#e5f9ff"/><g><g><path d="M268.50409,68.43083c-1.20073,9.1663 -6.79322,15.99197 -12.4912,15.24555c-5.69795,-0.74641 -9.34369,-8.78222 -8.14299,-17.94849c0.36518,-2.78769 1.13654,-5.35886 2.19356,-7.56644c0.28464,-0.59447 -1.67876,-2.91728 -1.35506,-3.4561c0.44451,-0.73991 3.19236,0.32998 3.69998,-0.29222c0.77678,-0.95212 -0.4437,-3.48557 0.44482,-4.11795c0.73902,-0.526 3.57316,0.79569 4.3618,0.52467c1.02656,-0.35279 2.20157,-2.95984 3.26321,-2.82078c0.96367,0.12622 1.75159,2.94424 2.58433,3.45771c0.82116,0.50632 3.42425,-0.23672 4.09202,0.58856c0.58902,0.728 -0.7388,2.99207 -0.2881,3.92642c0.41947,0.86964 3.39249,0.91371 3.67726,1.92929c0.21871,0.78006 -2.22179,2.50497 -2.09002,3.35467c0.34434,2.22101 0.38053,4.65535 0.05045,7.17514z" fill="#d64747"/><path d="M266.50884,68.40304c-0.98633,7.52945 -5.58014,13.13625 -10.26062,12.52314c-4.68045,-0.6131 -7.67518,-7.21396 -6.68888,-14.74344c0.98633,-7.52945 5.58014,-13.13625 10.26062,-12.52314c4.68045,0.6131 7.67518,7.21396 6.68885,14.74341z" fill="#d546be"/></g><g><g><path d="M302.59962,109.04247c-7.63166,5.21732 -16.44749,5.60103 -19.69067,0.85704c-3.24321,-4.744 0.31435,-12.81926 7.94601,-18.03658c2.32096,-1.58671 4.75146,-2.72634 7.10142,-3.41066c0.63279,-0.18426 1.05464,-3.19632 1.67204,-3.3144c0.84781,-0.16213 1.88277,2.59909 2.68493,2.56248c1.22751,-0.05599 2.30171,-2.65487 3.36544,-2.4144c0.88477,0.20001 1.78963,3.19344 2.51747,3.6004c0.94745,0.52978 3.67382,-0.33295 4.27807,0.55092c0.54851,0.80235 -1.02616,3.26856 -0.85354,4.23155c0.17024,0.94955 2.45975,2.39401 2.28997,3.44196c-0.14975,0.92439 -2.72244,1.44457 -3.11823,2.40348c-0.36836,0.89248 1.58123,3.13745 1.01424,4.02686c-0.4355,0.68315 -3.34826,0.01458 -3.89364,0.67934c-1.42554,1.7376 -3.21557,3.38779 -5.31349,4.82203z" fill="#d64747"/><path d="M301.28987,107.53701c-6.26886,4.28565 -13.51043,4.60084 -16.17449,0.70401c-2.66406,-3.89686 0.2582,-10.53009 6.52706,-14.81578c6.26886,-4.28565 13.51043,-4.60084 16.17449,-0.70398c2.66406,3.89686 -0.2582,10.53009 -6.52706,14.81575z" fill="#d546be"/></g><g><path d="M288.89487,86.23413c-4.72366,7.94666 -12.55747,12.00834 -17.4973,9.07202c-4.9398,-2.93632 -5.11508,-11.75874 -0.39142,-19.70541c1.43659,-2.41679 3.16082,-4.47422 5.00381,-6.08476c0.49629,-0.4337 -0.38997,-3.34316 0.12025,-3.71031c0.70061,-0.50418 2.80242,1.56411 3.51454,1.19299c1.08968,-0.56785 0.96915,-3.37742 2.03518,-3.60743c0.88669,-0.19132 2.96836,2.14236 3.79989,2.20489c1.08243,0.08137 3.19168,-1.84959 4.11204,-1.3025c0.83546,0.4966 0.44621,3.3967 1.00846,4.19732c0.55442,0.7895 3.23934,1.13505 3.52683,2.15697c0.25359,0.90145 -1.86057,2.45696 -1.8156,3.49337c0.04188,0.9646 2.75574,2.17938 2.61618,3.22489c-0.10719,0.80303 -3.03054,1.42371 -3.24513,2.25633c-0.56089,2.17641 -1.48921,4.42711 -2.78775,6.61163z" fill="#d64747"/><path d="M287.07286,85.42048c-3.88015,6.52762 -10.31507,9.864 -14.37279,7.45204c-4.05772,-2.41199 -4.20168,-9.65897 -0.3215,-16.18659c3.88015,-6.52762 10.31507,-9.864 14.37279,-7.45201c4.05772,2.41199 4.20165,9.65897 0.3215,16.18659z" fill="#d546be"/></g></g></g><g data-paper-data="{&quot;index&quot;:null}"><g><path d="M162.60126,97.95551c-0.40585,-0.75802 -3.39299,-0.66811 -3.68747,-1.42285c-0.38341,-0.98261 1.96519,-2.80607 1.77722,-3.75312c-0.20196,-1.01753 -2.62457,-2.02759 -2.59188,-2.96347c0.03705,-1.06095 2.56356,-2.03307 2.91506,-2.93149c0.35645,-0.91108 -0.70912,-3.63624 -0.0152,-4.31673c0.76446,-0.74963 3.27125,0.62632 4.30358,0.2907c0.79306,-0.25783 2.26221,-3.01844 3.16899,-3.04273c1.09017,-0.02922 1.63902,2.72882 2.83226,3.02221c0.77978,0.19172 2.33145,-2.31582 3.13163,-1.99206c0.58271,0.23576 0.41133,3.27237 0.99629,3.57607c2.17223,1.12781 4.33499,2.71792 6.3035,4.7253c6.47265,6.60055 8.39361,15.21308 4.29058,19.23663c-4.10304,4.02355 -12.67636,1.93446 -19.14901,-4.66606c-1.77932,-1.81449 -3.21467,-3.78098 -4.27547,-5.76242z" fill="#d64747"/><path d="M164.92955,86.69411c3.37036,-3.30505 10.41272,-1.58903 15.72955,3.83285c5.31683,5.42188 6.89475,12.49646 3.52441,15.80152c-3.37036,3.30505 -10.41272,1.58903 -15.72955,-3.83285c-5.31683,-5.42188 -6.89475,-12.49646 -3.52438,-15.80152z" fill="#d546be"/></g><g><g><path d="M156.92064,156.01368c-0.83553,-0.20305 -2.76036,2.08306 -3.51918,1.79926c-0.98794,-0.36948 -0.78077,-3.33564 -1.61187,-3.82703c-0.89294,-0.52798 -3.2611,0.60391 -3.93673,-0.04451c-0.76595,-0.73506 0.19429,-3.26612 -0.24087,-4.12709c-0.44129,-0.87313 -3.1827,-1.8962 -3.22709,-2.86711c-0.0489,-1.06956 2.64806,-2.02023 3.08628,-3.01333c0.33667,-0.76294 -0.74097,-3.69858 -0.15445,-4.39055c0.70516,-0.8319 3.12652,0.59815 4.14083,-0.09543c0.66287,-0.4533 -0.1712,-3.28165 0.60363,-3.66209c0.56426,-0.27705 2.71297,1.87549 3.32935,1.64208c2.28895,-0.86679 4.91609,-1.41826 7.72467,-1.54672c9.23496,-0.42234 16.93415,3.88903 17.19672,9.62966c0.26254,5.74063 -7.01103,10.73673 -16.24599,11.15908c-2.53868,0.1161 -4.96128,-0.12551 -7.14524,-0.65622z" fill="#d64747"/><path d="M150.08084,146.76938c-0.21564,-4.71552 5.75908,-8.81945 13.34493,-9.16637c7.58585,-0.34691 13.91021,3.19456 14.12585,7.91007c0.21564,4.71552 -5.75908,8.81945 -13.34493,9.16637c-7.58585,0.34691 -13.91024,-3.19452 -14.12588,-7.91007z" fill="#d546be"/></g><g><path d="M155.09149,126.6004c-0.67225,-0.53609 -3.38101,0.72642 -3.94964,0.14938c-0.74035,-0.75127 0.69705,-3.35411 0.1503,-4.1499c-0.58744,-0.855 -3.21204,-0.82605 -3.55165,-1.69872c-0.38502,-0.98933 1.55207,-2.88033 1.5201,-3.84452c-0.03241,-0.97778 -2.08773,-3.06047 -1.719,-3.95973c0.40619,-0.99063 3.25265,-0.71673 4.06846,-1.43281c0.62672,-0.55012 0.88601,-3.66655 1.70943,-4.04704c0.99001,-0.45744 2.58362,1.85955 3.79571,1.65777c0.79213,-0.13186 1.22713,-3.0484 2.09012,-3.06703c0.62846,-0.01356 1.67043,2.84383 2.32777,2.89178c2.44108,0.1781 5.05606,0.78464 7.65738,1.85126c8.55348,3.5072 13.72007,10.66068 11.53991,15.97773c-2.18016,5.31702 -10.88149,6.78419 -19.43497,3.27695c-2.35132,-0.9641 -4.4467,-2.2038 -6.20389,-3.60511z" fill="#d64747"/><path d="M152.78235,115.33504c1.79084,-4.36755 8.93837,-5.57271 15.96445,-2.6918c7.02608,2.88095 11.27007,8.75699 9.4792,13.12455c-1.79084,4.36755 -8.93837,5.57271 -15.96445,2.6918c-7.02608,-2.88095 -11.27007,-8.75699 -9.4792,-13.12455z" fill="#d546be"/></g></g></g><path d="M236.08293,197.55736l-2.67258,-7.9929l29.42839,-9.83992l2.67258,7.9929z" fill="#5798c4"/><path d="M240.53693,210.07149l-2.30814,-6.90295l29.42839,-9.83992l2.30814,6.90295z" fill="#5798c4"/><path d="M245.23502,224.52364l-2.30814,-6.90295l29.42842,-9.83992l2.30814,6.90295z" fill="#5798c4"/><path d="M250.11366,237.70365l-2.30814,-6.90295l29.42842,-9.83992l2.30814,6.90295z" fill="#5798c4"/><path d="M255.35673,251.97359l-2.30814,-6.90295l29.42842,-9.83992l2.30814,6.90295z" fill="#5798c4"/><path d="M119.74242,197.97992l-27.80992,-2.94297l-2.30217,2.65537l-1.78963,-0.39179l0.34075,-4.11207l4.1945,-2.34204l27.80992,2.94297l4.57103,1.86608l0.7986,5.6362l-3.61467,-0.54882z" data-paper-data="{&quot;index&quot;:null}" fill="#88b9e2"/><path d="M125.04891,203.22159l3.63414,-0.40018l-1.02901,5.59871l-4.64371,1.67712l-27.90721,1.80031l-4.09496,-2.51206l-0.17188,-4.12257l1.80418,-0.3181l2.19136,2.74751l27.90724,-1.80031z" fill="#88b9e2"/><path d="M165.80875,216.6942c-13.27581,0.08828 -32.29284,0.21475 -39.64843,0.26368c-5.81581,0.03866 -13.05487,-4.46187 -13.08895,-9.58698c-0.02937,-4.41794 -0.06163,-9.26436 -0.07976,-11.99497c-0.02705,-4.0702 5.28993,-10.35401 12.65735,-10.403c12.58099,-0.08366 32.16646,-0.21391 39.78301,-0.26458c6.58018,-0.04377 14.13947,5.579 14.16504,9.42203c0.01978,2.97572 0.0576,8.65798 0.09019,13.56367c0.03213,4.83011 -5.86323,8.94682 -13.87842,9.00012z" fill="#dcf7ff"/><path d="M362.24926,120.32359l-2.55759,2.61262l-2.75212,-4.98301l2.5293,-4.24022l20.44665,-19.07847l4.75963,-0.65195l2.74556,3.08009l-1.19405,1.38945l-3.43632,-0.73657l-20.44665,19.07847z" data-paper-data="{&quot;index&quot;:null}" fill="#88b9e2"/><path d="M364.70883,124.91725l23.3774,-15.34766l0.09803,-3.51299l1.63267,-0.83107l2.34238,3.39683l-1.76041,4.46988l-23.3774,15.34766l-4.71855,1.45333l-4.18964,-3.85375l3.14395,-1.86621z" fill="#88b9e2"/><path d="M320.29792,160.61056c-2.92465,-3.93868 -6.31226,-8.50086 -8.08632,-10.89001c-2.29112,-3.08551 0.36583,-12.12426 5.64892,-16.04718c6.11518,-4.54083 21.83997,-16.21721 31.94103,-23.71769c5.91517,-4.39228 13.94243,-2.5704 16.369,0.69751c1.62794,2.19235 4.51724,6.08346 7.15112,9.63053c3.05546,4.11483 -0.02065,12.06446 -4.69005,15.53171c-5.9057,4.38523 -21.17409,15.72274 -31.83298,23.63746c-6.43523,4.77848 -13.62111,5.03572 -16.5007,1.15771z" fill="#dcf7ff"/><path d="M290.58549,293.53066c-0.58456,0.1646 -1.26168,0.35524 -1.61627,0.45506c-0.45794,0.12895 -2.68251,-4.33902 -4.03732,-8.41429c-1.56817,-4.7171 -5.60063,-16.84684 -8.19094,-24.63855c-1.51688,-4.5628 -1.87562,-8.09111 -1.39059,-8.22768c0.32537,-0.09162 0.90288,-0.25421 1.42931,-0.40244c0.61072,-0.17194 2.63692,4.14002 3.83434,7.74188c1.51446,4.5555 5.42987,16.33321 8.16323,24.55523c1.65025,4.964 2.38379,8.76872 1.8082,8.93079z" fill="#272727"/><path d="M283.52759,302.42124c-0.58456,0.16457 -1.26168,0.35524 -1.61627,0.45506c-0.45794,0.12895 -2.68251,-4.33902 -4.03732,-8.41429c-1.56817,-4.7171 -5.60063,-16.84684 -8.19094,-24.63855c-1.51688,-4.5628 -1.87562,-8.09111 -1.39059,-8.22768c0.32537,-0.09162 0.90288,-0.25421 1.42931,-0.40244c0.61072,-0.17194 2.63692,4.14002 3.83434,7.74188c1.51443,4.55553 5.42987,16.33318 8.16323,24.55523c1.65025,4.964 2.38379,8.76872 1.8082,8.93079z" fill="#272727"/></g></g></svg>